<svg width="329" height="123" viewBox="0 0 329 123" fill="none" xmlns="http://www.w3.org/2000/svg">
<path d="M0.641255 95.8162C4.24123 102.043 81.3894 94.3781 88.8257 94.2341C125.809 93.519 109.548 115.565 115.368 122.434C125.736 122.826 156.379 95.9981 176.619 95.4258C181.086 95.3942 195.114 98.4483 199.15 100.034C209.181 103.973 210.775 99.8254 227.883 111.437C229.944 113.182 237.203 116.09 239.45 117.293C242.751 119.061 249.56 119.972 249.467 119.535C247.761 111.548 233.969 102.302 233.747 94.4009C233.724 93.611 236.216 94.4361 240.797 95.8221C246.383 95.7811 249.891 90.3919 261.344 91.139C279.123 92.2987 289.469 97.6057 305.314 98.9449C310.332 99.3695 323.206 103.932 327.843 101.887C328.086 101.779 321.794 96.2398 321.441 95.9702C318.003 93.3507 314.947 89.964 311.831 86.8693C302.044 77.1503 285.329 69.2138 276.292 58.6915C267.036 47.914 303.161 36.3301 308.675 23.4834C308.911 22.931 301 24.2603 292.82 24.0058C286.447 23.9255 265.307 20.2072 258.921 20.4384C236.65 21.2445 231.732 22.8707 209.503 25.439C203.794 26.098 193.172 29.1907 188.12 26.2854C181.239 22.3295 181.919 3.00217 173.887 0.668269C172.196 0.176164 172.844 6.70287 165.621 10.6449C145.554 19.8389 117.536 25.7693 106.459 29.3874C86.4991 35.908 71.7586 33.1216 59.4205 36.133C47.0823 39.1443 47.0299 39.9422 36.2965 44.2668C25.5632 48.5914 85.673 53.545 67.6016 70.5217C48.3679 84.8149 -1.02619 92.9308 0.641255 95.8162Z" fill="#FE6914" stroke="#282218" stroke-miterlimit="10" stroke-linecap="round" stroke-linejoin="round"/>
</svg>
