<svg width="96" height="56" viewBox="0 0 96 56" fill="none" xmlns="http://www.w3.org/2000/svg">
<path d="M76.623 20.3059C76.623 15.6522 80.1072 9.67151 84.9604 9.67151C87.9268 9.67151 88.5675 11.9529 89.8839 11.9529C90.5246 11.9529 91.3232 11.3803 92.666 9.67151H92.8151L90.2788 21.8511C90.1296 22.551 90.2788 22.9873 90.6123 22.9873C91.0072 22.9873 91.6479 22.4783 92.8766 20.8058L92.9994 20.8695C91.3495 24.0325 90.0331 25.5868 88.4446 25.5868C87.1633 25.5868 86.5226 24.5415 86.5226 23.4054C86.5226 22.6419 86.8561 20.9058 87.9268 16.5975H87.9005C85.2413 23.778 83.0385 25.5868 80.8444 25.5868C78.7293 25.5868 76.623 23.9416 76.623 20.3059ZM88.0848 15.1432L88.3305 13.7526C87.5055 10.9985 86.3471 10.0533 85.2413 10.0533C82.1872 10.0533 80.5372 17.2065 80.5372 20.5877C80.5372 22.96 81.3359 24.1598 82.31 24.1598C83.7406 24.1689 85.7327 21.6966 88.0848 15.1432Z" fill="#282218"/>
<path d="M30.5487 43.6199C30.5487 43.2745 30.6101 42.8291 30.8207 41.8475L32.5584 33.7762H32.5321C27.4945 44.1561 25.4146 45.774 23.5804 45.774C22.0533 45.774 21.1055 44.5379 21.1055 42.7018C21.1055 41.8475 21.3161 40.6477 21.6847 38.8753L22.5974 34.6033C23.0889 32.3219 22.2903 31.5675 21.2196 30.9949L21.2459 30.8676C23.2293 30.7404 25.2215 30.3586 27.2313 29.7951L25.2478 39.1661C25.0021 40.3659 24.8178 41.2567 24.8178 42.111C24.8178 43.12 25.0899 43.4108 25.6428 43.4108C26.7398 43.4108 27.8719 42.0838 32.5496 33.0309L33.0674 30.7222L36.9202 29.8042L34.4716 41.5748C34.2873 42.4292 34.1381 43.1927 34.6823 43.1927C35.0158 43.1927 35.4195 42.9109 36.9729 41.0113L37.0957 41.1021C35.4633 44.038 34.3312 45.8104 32.5584 45.8104C31.3385 45.8104 30.5487 44.956 30.5487 43.6199Z" fill="#282218"/>
<path d="M38.4551 44.1925L38.9465 39.9478L39.0343 39.9206C40.4736 43.2472 42.2113 45.4559 43.7998 45.4559C44.7125 45.4559 45.8797 44.7288 45.8797 43.1109C45.8797 41.4657 44.6599 40.2932 43.1942 38.9298C41.5706 37.4119 40.2279 36.1758 40.3507 34.058C40.4999 31.304 42.852 29.8497 45.3356 29.8497C46.8364 29.8497 48.6355 30.3859 50.1362 31.1494L49.5833 35.1396L49.4955 35.1669C48.3371 32.3856 46.81 30.1951 45.2479 30.1951C44.3615 30.1951 43.5365 30.9222 43.4136 32.2492C43.2908 34.0216 44.4492 34.9669 45.95 36.303C48.0914 38.2027 49.0392 39.4661 49.0392 41.2385C49.0392 44.1198 46.5643 45.765 43.6945 45.765C41.9656 45.774 40.0172 45.1105 38.4551 44.1925Z" fill="#282218"/>
<path d="M51.5938 43.4654C51.5938 43.0836 51.6552 42.7382 51.7429 42.2928L53.3051 34.6942C53.7615 32.4492 53.3314 31.622 52.0238 31.0222L52.0501 30.8676C54.0335 30.7131 56.0521 30.3586 58.0092 29.7951L55.5079 42.0383C55.3587 42.8018 55.4202 43.1745 55.7537 43.1745C56.1837 43.1745 56.7893 42.7655 58.0794 40.9567L58.2022 41.0476C56.5786 44.1198 55.3938 45.7649 53.6825 45.7649C52.3573 45.774 51.5938 44.8287 51.5938 43.4654Z" fill="#282218"/>
<path d="M42.1504 17.5791C42.1504 12.1347 45.7223 9.41699 49.5751 9.41699C53.3927 9.41699 57.0875 12.0711 57.0875 17.5155C57.0875 22.8327 53.577 25.6504 49.5751 25.6504C45.696 25.6413 42.1504 22.9873 42.1504 17.5791ZM53.305 17.5428C53.305 13.9344 51.4707 12.6346 49.6102 12.6346C47.7145 12.6346 45.9417 13.998 45.9417 17.5428C45.9417 21.024 47.6531 22.4146 49.6365 22.4146C51.5936 22.4146 53.305 21.024 53.305 17.5428Z" fill="#282218"/>
<path d="M76.2109 30.2405H79.9672V32.3583H79.9935C80.7921 30.6768 82.4684 29.7679 84.4869 29.7679C87.0232 29.7679 89.4103 31.2222 89.4103 34.867V45.465H85.6805V35.7395C85.6805 34.0944 84.8555 32.9855 83.267 32.9855C81.4328 32.9855 79.9672 34.3761 79.9672 37.3483V45.4469H76.2109V30.2405Z" fill="#282218"/>
<path d="M27.784 25.4777C30.4432 24.4325 30.6538 23.9871 31.1453 21.6239L32.4266 15.4886L28.6089 5.52681C28.2755 4.67242 27.7226 3.88166 26.3184 3.12725L26.3447 3H35.744L35.7177 3.12725C32.9707 4.39066 32.7864 4.83603 33.4885 6.67206L36.5426 14.607L42.2823 6.92656C42.7386 6.32667 43.0721 5.72678 43.0721 5.19051C43.0721 4.39975 42.4578 3.79985 41.3608 3.13634L41.3871 3.00909H47.4602L47.4339 3.13634C45.3276 4.14525 44.1341 5.25414 42.8264 6.96292L36.6567 15.0887L35.314 21.633C34.7611 24.287 35.1297 24.5779 37.0868 25.4868L37.0604 25.6141H27.7577L27.784 25.4777Z" fill="#282218"/>
<path d="M3 51.4912L4.64115 48.5463H4.71136C5.65919 51.1185 6.74744 52.6273 7.77426 52.6273C8.8274 52.6273 10.2491 51.4548 11.3813 42.7837L14.4442 27.7682H10.9425V27.3956H23.0712L23.0361 27.7682H17.8669L15.1989 41.0476C13.6719 48.6644 11.0127 53.0091 7.51097 53.0091C6.23842 53 4.56216 52.4365 3 51.4912Z" fill="#282218"/>
<path d="M19.8586 27.7682C19.8586 27.7682 21.7016 27.741 22.9215 27.7682C23.4217 27.7773 24.4749 27.7591 25.0014 27.6955L24.6767 24.3143L24.6065 24.287C23.176 26.4866 21.6665 27.3956 19.7357 27.3956C18.902 27.3865 19.8586 27.7682 19.8586 27.7682Z" fill="#282218"/>
<path d="M22.4574 12.1892C23.6071 12.2165 25.0025 14.9615 25.8977 19.1425C25.8977 19.1425 26.3892 18.8244 27.2054 17.7246C28.0215 16.6248 29.1098 14.9615 29.1098 14.9615C27.5388 14.0162 23.9845 11.8166 22.7119 11.8166C19.219 11.8166 16.7353 16.1522 15.1995 23.7781L14.0586 29.6588L17.5076 29.4952L19.0259 22.042C20.1581 13.3618 21.4043 12.1711 22.4574 12.1892Z" fill="#282218"/>
<path d="M59.3789 17.7791C59.3789 12.2074 63.0386 9.41699 66.9791 9.41699C70.8933 9.41699 74.6758 12.1347 74.6758 17.7064C74.6758 23.1509 71.0776 26.0322 66.9791 26.0322C63.0035 26.0412 59.3789 23.3145 59.3789 17.7791ZM70.7967 17.7428C70.7967 14.0525 68.9186 12.7255 67.0142 12.7255C65.0747 12.7255 63.258 14.1161 63.258 17.7428C63.258 21.3057 65.0132 22.7328 67.0405 22.7328C69.0415 22.7328 70.7967 21.3057 70.7967 17.7428Z" fill="#282218"/>
<path d="M71.9292 7.07196H75.7118V8.23539C75.7118 10.1805 74.0531 11.0894 71.8327 11.0894V11.153L69.6211 10.1805C71.7098 10.1805 71.9292 9.17158 71.9292 7.07196Z" fill="#282218"/>
<path d="M71.8415 11.0894C74.0619 11.0894 75.7206 10.1805 75.7206 8.23539V7.07196H71.938C71.938 9.18067 71.7186 10.1805 69.6211 10.1805L71.8415 11.153V11.0894Z" fill="#282218"/>
<path d="M72.3404 29.7588C70.8836 28.2591 69.3126 27.7046 66.9869 27.641C65.0211 27.5865 63.5028 27.9591 63.1956 27.1593C62.8182 26.1958 63.5818 25.5959 64.6876 25.4232C66.2585 25.1778 64.3277 23.9871 62.6778 24.4598C60.0976 25.196 58.9304 27.8955 60.6768 29.886C61.1859 30.4678 61.8616 30.6859 62.7041 30.7495C62.7831 30.7586 62.8533 30.7586 62.9323 30.7586C62.1074 31.2585 61.3789 31.9402 60.7997 32.8037C59.9309 34.0944 59.4043 35.7759 59.4043 37.8664C59.4043 43.2745 62.9499 45.9377 66.829 45.9377C70.0498 45.9377 72.9548 44.1107 73.964 40.6295C74.9996 37.0756 74.7627 32.2583 72.3404 29.7588ZM66.8904 42.7019C64.907 42.7019 63.1956 41.3112 63.1956 37.83C63.1956 36.9029 63.3185 36.1304 63.5291 35.485C63.7134 35.0306 63.9065 34.6397 64.1171 34.3034C65.3019 32.3674 66.7939 32.1856 67.7943 31.9493V31.8221C66.1707 31.204 64.9333 30.9949 63.6256 30.7586C64.4945 30.7313 65.5038 30.6404 66.6447 30.6223C68.2156 30.6859 69.8392 31.2585 70.6905 32.8037C71.6734 34.5943 71.8841 38.1482 70.4009 40.6114C69.5671 41.9747 68.5754 42.7019 66.8904 42.7019Z" fill="#282218"/>
<path d="M67.2852 35.2578H67.2062C67.0307 36.2576 66.2672 37.0392 65.3105 37.221V37.3028C66.2759 37.4846 67.0307 38.2754 67.2062 39.2661H67.2852C67.4607 38.2663 68.2242 37.4846 69.1809 37.3028V37.221C68.2155 37.0302 67.4607 36.2485 67.2852 35.2578Z" fill="#282218"/>
</svg>
