<svg width="90" height="50" viewBox="0 0 90 50" fill="none" xmlns="http://www.w3.org/2000/svg">
    <path d="M73.623 17.3059C73.623 12.6522 77.1072 6.67151 81.9604 6.67151C84.9268 6.67151 85.5675 8.95291 86.8839 8.95291C87.5246 8.95291 88.3232 8.38029 89.666 6.67151H89.8151L87.2788 18.8511C87.1296 19.551 87.2788 19.9873 87.6123 19.9873C88.0072 19.9873 88.6479 19.4783 89.8766 17.8058L89.9994 17.8695C88.3495 21.0325 87.0331 22.5868 85.4446 22.5868C84.1633 22.5868 83.5226 21.5415 83.5226 20.4054C83.5226 19.6419 83.8561 17.9058 84.9268 13.5975H84.9005C82.2413 20.778 80.0385 22.5868 77.8444 22.5868C75.7293 22.5868 73.623 20.9416 73.623 17.3059ZM85.0848 12.1432L85.3305 10.7526C84.5055 7.99854 83.3471 7.05326 82.2413 7.05326C79.1872 7.05326 77.5372 14.2065 77.5372 17.5877C77.5372 19.96 78.3359 21.1598 79.31 21.1598C80.7406 21.1689 82.7327 18.6966 85.0848 12.1432Z" fill="#282218"/>
    <path d="M27.5487 40.6199C27.5487 40.2745 27.6101 39.8291 27.8207 38.8475L29.5584 30.7762H29.5321C24.4945 41.1561 22.4146 42.774 20.5804 42.774C19.0533 42.774 18.1055 41.5379 18.1055 39.7018C18.1055 38.8475 18.3161 37.6477 18.6847 35.8753L19.5974 31.6033C20.0889 29.3219 19.2903 28.5675 18.2196 27.9949L18.2459 27.8676C20.2293 27.7404 22.2215 27.3586 24.2313 26.7951L22.2478 36.1661C22.0021 37.3659 21.8178 38.2567 21.8178 39.111C21.8178 40.12 22.0899 40.4108 22.6428 40.4108C23.7398 40.4108 24.8719 39.0838 29.5496 30.0309L30.0674 27.7222L33.9202 26.8042L31.4716 38.5748C31.2873 39.4292 31.1381 40.1927 31.6823 40.1927C32.0158 40.1927 32.4195 39.9109 33.9729 38.0113L34.0957 38.1021C32.4633 41.038 31.3312 42.8104 29.5584 42.8104C28.3385 42.8104 27.5487 41.956 27.5487 40.6199Z" fill="#282218"/>
    <path d="M35.4551 41.1925L35.9465 36.9478L36.0343 36.9206C37.4736 40.2472 39.2113 42.4559 40.7998 42.4559C41.7125 42.4559 42.8797 41.7288 42.8797 40.1109C42.8797 38.4657 41.6599 37.2932 40.1942 35.9298C38.5706 34.4119 37.2279 33.1758 37.3507 31.058C37.4999 28.304 39.852 26.8497 42.3356 26.8497C43.8364 26.8497 45.6355 27.3859 47.1362 28.1494L46.5833 32.1396L46.4955 32.1669C45.3371 29.3856 43.81 27.1951 42.2479 27.1951C41.3615 27.1951 40.5365 27.9222 40.4136 29.2492C40.2908 31.0216 41.4492 31.9669 42.95 33.303C45.0914 35.2027 46.0392 36.4661 46.0392 38.2385C46.0392 41.1198 43.5643 42.765 40.6945 42.765C38.9656 42.774 37.0172 42.1105 35.4551 41.1925Z" fill="#282218"/>
    <path d="M48.5938 40.4654C48.5938 40.0836 48.6552 39.7382 48.7429 39.2928L50.3051 31.6942C50.7615 29.4492 50.3314 28.622 49.0238 28.0222L49.0501 27.8676C51.0335 27.7131 53.0521 27.3586 55.0092 26.7951L52.5079 39.0383C52.3587 39.8018 52.4202 40.1745 52.7537 40.1745C53.1837 40.1745 53.7893 39.7655 55.0794 37.9567L55.2022 38.0476C53.5786 41.1198 52.3938 42.7649 50.6825 42.7649C49.3573 42.774 48.5938 41.8287 48.5938 40.4654Z" fill="#282218"/>
    <path d="M39.1504 14.5791C39.1504 9.13468 42.7223 6.41699 46.5751 6.41699C50.3927 6.41699 54.0875 9.07105 54.0875 14.5155C54.0875 19.8327 50.577 22.6504 46.5751 22.6504C42.696 22.6413 39.1504 19.9873 39.1504 14.5791ZM50.305 14.5428C50.305 10.9344 48.4707 9.63459 46.6102 9.63459C44.7145 9.63459 42.9417 10.998 42.9417 14.5428C42.9417 18.024 44.6531 19.4146 46.6365 19.4146C48.5936 19.4146 50.305 18.024 50.305 14.5428Z" fill="#282218"/>
    <path d="M73.2109 27.2405H76.9672V29.3583H76.9935C77.7921 27.6768 79.4684 26.7679 81.4869 26.7679C84.0232 26.7679 86.4103 28.2222 86.4103 31.867V42.465H82.6805V32.7395C82.6805 31.0944 81.8555 29.9855 80.267 29.9855C78.4328 29.9855 76.9672 31.3761 76.9672 34.3483V42.4469H73.2109V27.2405Z" fill="#282218"/>
    <path d="M24.784 22.4777C27.4432 21.4325 27.6538 20.9871 28.1453 18.6239L29.4266 12.4886L25.6089 2.52681C25.2755 1.67242 24.7226 0.881658 23.3184 0.12725L23.3447 0H32.744L32.7177 0.12725C29.9707 1.39066 29.7864 1.83603 30.4885 3.67206L33.5426 11.607L39.2823 3.92656C39.7386 3.32667 40.0721 2.72678 40.0721 2.19051C40.0721 1.39975 39.4578 0.799855 38.3608 0.136339L38.3871 0.00908926H44.4602L44.4339 0.136339C42.3276 1.14525 41.1341 2.25414 39.8264 3.96292L33.6567 12.0887L32.314 18.633C31.7611 21.287 32.1297 21.5779 34.0868 22.4868L34.0604 22.6141H24.7577L24.784 22.4777Z" fill="#282218"/>
    <path d="M0 48.4912L1.64115 45.5463H1.71136C2.65919 48.1185 3.74744 49.6273 4.77426 49.6273C5.8274 49.6273 7.24915 48.4548 8.38128 39.7837L11.4442 24.7682H7.94247V24.3956H20.0712L20.0361 24.7682H14.8669L12.1989 38.0476C10.6719 45.6644 8.01268 50.0091 4.51097 50.0091C3.23842 50 1.56216 49.4365 0 48.4912Z" fill="#282218"/>
    <path d="M16.8586 24.7682C16.8586 24.7682 18.7016 24.741 19.9215 24.7682C20.4217 24.7773 21.4749 24.7591 22.0014 24.6955L21.6767 21.3143L21.6065 21.287C20.176 23.4866 18.6665 24.3956 16.7357 24.3956C15.902 24.3865 16.8586 24.7682 16.8586 24.7682Z" fill="#282218"/>
    <path d="M19.4574 9.18925C20.6071 9.21652 22.0025 11.9615 22.8977 16.1425C22.8977 16.1425 23.3892 15.8244 24.2054 14.7246C25.0215 13.6248 26.1098 11.9615 26.1098 11.9615C24.5388 11.0162 20.9845 8.81659 19.7119 8.81659C16.219 8.81659 13.7353 13.1522 12.1995 20.7781L11.0586 26.6588L14.5076 26.4952L16.0259 19.042C17.1581 10.3618 18.4043 9.17107 19.4574 9.18925Z" fill="#282218"/>
    <path d="M56.3789 14.7791C56.3789 9.20739 60.0386 6.41699 63.9791 6.41699C67.8933 6.41699 71.6758 9.13468 71.6758 14.7064C71.6758 20.1509 68.0776 23.0322 63.9791 23.0322C60.0035 23.0412 56.3789 20.3145 56.3789 14.7791ZM67.7967 14.7428C67.7967 11.0525 65.9186 9.72548 64.0142 9.72548C62.0747 9.72548 60.258 11.1161 60.258 14.7428C60.258 18.3057 62.0132 19.7328 64.0405 19.7328C66.0415 19.7328 67.7967 18.3057 67.7967 14.7428Z" fill="#282218"/>
    <path d="M68.9292 4.07196H72.7118V5.23539C72.7118 7.18049 71.0531 8.08941 68.8327 8.08941V8.15304L66.6211 7.18049C68.7098 7.18049 68.9292 6.17158 68.9292 4.07196Z" fill="#282218"/>
    <path d="M68.8415 8.08941C71.0619 8.08941 72.7206 7.18049 72.7206 5.23539V4.07196H68.938C68.938 6.18067 68.7186 7.18049 66.6211 7.18049L68.8415 8.15304V8.08941Z" fill="#282218"/>
    <path d="M69.3404 26.7588C67.8836 25.2591 66.3126 24.7046 63.9869 24.641C62.0211 24.5865 60.5028 24.9591 60.1956 24.1593C59.8182 23.1958 60.5818 22.5959 61.6876 22.4232C63.2585 22.1778 61.3277 20.9871 59.6778 21.4598C57.0976 22.196 55.9304 24.8955 57.6768 26.886C58.1859 27.4678 58.8616 27.6859 59.7041 27.7495C59.7831 27.7586 59.8533 27.7586 59.9323 27.7586C59.1074 28.2585 58.3789 28.9402 57.7997 29.8037C56.9309 31.0944 56.4043 32.7759 56.4043 34.8664C56.4043 40.2745 59.9499 42.9377 63.829 42.9377C67.0498 42.9377 69.9548 41.1107 70.964 37.6295C71.9996 34.0756 71.7627 29.2583 69.3404 26.7588ZM63.8904 39.7019C61.907 39.7019 60.1956 38.3112 60.1956 34.83C60.1956 33.9029 60.3185 33.1304 60.5291 32.485C60.7134 32.0306 60.9065 31.6397 61.1171 31.3034C62.3019 29.3674 63.7939 29.1856 64.7943 28.9493V28.8221C63.1707 28.204 61.9333 27.9949 60.6256 27.7586C61.4945 27.7313 62.5038 27.6404 63.6447 27.6223C65.2156 27.6859 66.8392 28.2585 67.6905 29.8037C68.6734 31.5943 68.8841 35.1482 67.4009 37.6114C66.5671 38.9747 65.5754 39.7019 63.8904 39.7019Z" fill="#282218"/>
    <path d="M64.2852 32.2578H64.2062C64.0307 33.2576 63.2672 34.0392 62.3105 34.221V34.3028C63.2759 34.4846 64.0307 35.2754 64.2062 36.2661H64.2852C64.4607 35.2663 65.2242 34.4846 66.1809 34.3028V34.221C65.2155 34.0302 64.4607 33.2485 64.2852 32.2578Z" fill="#282218"/>
</svg>