<svg viewBox="0 0 41 37" fill="none" xmlns="http://www.w3.org/2000/svg">
<path d="M11.5978 2.87663C11.14 4.87539 13.5796 8.64061 11.211 11.7618C8.84232 14.883 0.683594 16.3942 0.683594 17.052C0.683594 17.4821 7.94749 19.2554 9.63874 23.9361C11.33 28.6167 9.45565 35.5837 9.90421 35.5837C10.1926 35.5837 12.845 30.4384 17.8066 28.7018C22.7682 26.9653 31.0643 34.4129 31.8195 34.1599C32.1994 34.0334 30.8537 27.2804 32.8997 22.8896C34.9457 18.4987 40.3169 16.6104 40.3169 15.1728C40.3169 13.1349 33.6481 14.0987 30.5928 10.9338C27.5376 7.76888 30.8217 1.00437 29.5218 1.43678C28.1258 1.8968 25.7342 4.35788 21.6102 5.44351C17.4862 6.52914 11.719 2.34071 11.5978 2.87663Z" fill="#EF5DA8" stroke="#282218" stroke-linecap="round" stroke-linejoin="round"/>
</svg>
