<?xml version="1.0" standalone="no"?>
<!DOCTYPE svg PUBLIC "-//W3C//DTD SVG 20010904//EN"
 "http://www.w3.org/TR/2001/REC-SVG-20010904/DTD/svg10.dtd">
<svg version="1.0" xmlns="http://www.w3.org/2000/svg"
 width="225.000000pt" height="225.000000pt" viewBox="0 0 225.000000 225.000000"
 preserveAspectRatio="xMidYMid meet">

<g transform="translate(0.000000,225.000000) scale(0.100000,-0.100000)"
fill="#000000" stroke="none">
<path d="M950 2240 c-14 -4 -65 -20 -115 -35 -110 -33 -270 -107 -356 -165
-35 -24 -98 -78 -141 -121 -140 -143 -219 -275 -289 -485 -42 -125 -43 -133
-47 -280 -4 -162 2 -197 65 -384 53 -157 150 -308 289 -444 140 -139 296 -224
505 -277 259 -65 534 -33 783 92 113 57 182 107 256 185 219 231 280 354 335
678 15 85 15 114 5 195 -36 297 -140 523 -329 712 -161 160 -349 261 -594 318
-93 22 -314 29 -367 11z m410 -119 c49 -13 101 -32 130 -46 14 -7 43 -18 65
-25 22 -7 56 -25 75 -40 19 -15 50 -35 68 -44 17 -9 32 -21 32 -26 0 -6 5 -10
11 -10 6 0 16 -6 23 -12 7 -7 35 -34 62 -59 56 -51 134 -142 134 -155 0 -5 14
-25 30 -44 17 -19 38 -55 47 -80 9 -25 20 -50 25 -56 20 -27 59 -173 69 -261
19 -156 -6 -421 -42 -457 -5 -6 -9 -20 -9 -32 0 -13 -6 -29 -13 -36 -7 -7 -21
-34 -31 -61 -10 -26 -22 -47 -27 -47 -5 0 -9 -5 -9 -11 0 -18 -85 -139 -132
-190 -150 -160 -374 -278 -583 -309 -105 -15 -284 -12 -362 5 -74 17 -182 52
-198 64 -5 5 -31 16 -57 26 -27 10 -48 22 -48 26 0 5 -7 9 -15 9 -8 0 -15 4
-15 9 0 5 -17 17 -37 26 -43 20 -273 247 -273 268 0 8 -15 34 -33 58 -19 24
-40 62 -47 84 -7 22 -18 51 -25 65 -43 87 -65 214 -65 371 0 150 18 248 65
364 7 17 19 47 26 69 8 21 20 41 26 43 7 3 13 14 13 24 0 10 4 19 8 19 5 0 17
18 27 40 10 22 22 40 27 40 5 0 11 8 15 18 7 19 141 152 154 152 5 0 9 7 9 15
0 8 6 15 14 15 7 0 20 7 27 17 8 9 29 22 47 30 17 7 32 18 32 23 0 6 6 10 14
10 7 0 19 6 25 13 6 8 30 19 53 26 24 7 53 19 64 26 20 13 200 60 254 67 44 5
314 -10 350 -21z"/>
<path d="M723 1528 c9 -7 33 -53 53 -103 36 -89 36 -91 24 -159 -7 -40 -20
-76 -31 -87 -19 -19 -18 -19 47 -19 58 0 65 2 54 15 -10 12 -10 28 0 78 6 34
16 70 21 80 6 10 6 17 0 17 -11 0 -61 122 -61 150 0 12 10 24 23 30 16 6 -2 9
-62 9 -70 1 -82 -1 -68 -11z"/>
<path d="M983 1529 c20 -12 22 -36 5 -59 -7 -9 -4 -7 7 5 11 11 33 30 49 43
l29 22 -54 0 c-42 -1 -50 -3 -36 -11z"/>
<path d="M1506 1445 c-6 -24 -9 -24 -64 -19 -67 6 -111 -15 -138 -67 -23 -45
-15 -131 15 -163 l23 -24 -21 -11 c-27 -15 -29 -66 -2 -83 19 -11 18 -12 -2
-39 -25 -35 -34 -123 -15 -159 20 -36 75 -70 117 -70 86 0 136 68 129 177 -3
55 -8 68 -35 95 -26 26 -41 32 -95 37 -47 4 -63 10 -63 21 0 12 10 14 48 12
27 -2 61 2 78 8 67 28 97 147 51 209 l-21 29 29 11 c23 7 30 16 30 35 0 22 -5
26 -29 26 -22 0 -30 -6 -35 -25z m-32 -97 c25 -35 20 -94 -9 -123 -13 -14 -29
-25 -35 -25 -16 0 -53 21 -62 34 -14 21 -8 99 9 118 23 26 78 24 97 -4z m1
-303 c45 -44 29 -146 -27 -173 -55 -26 -105 28 -92 98 6 30 37 70 54 70 20 0
9 19 -12 23 -14 3 -8 5 15 6 28 1 44 -5 62 -24z"/>
<path d="M1412 970 c-8 -14 -8 -21 2 -29 20 -17 38 9 22 31 -11 15 -13 15 -24
-2z"/>
<path d="M949 1423 c-13 -16 -12 -17 4 -4 9 7 17 15 17 17 0 8 -8 3 -21 -13z"/>
<path d="M1054 1414 c-44 -21 -64 -62 -64 -129 0 -51 3 -60 34 -91 31 -31 40
-34 91 -34 51 0 60 3 90 33 45 45 54 100 26 162 -30 68 -106 94 -177 59z m101
-59 c49 -48 23 -145 -37 -145 -42 0 -68 35 -68 90 0 34 38 80 65 80 9 0 27
-11 40 -25z"/>
<path d="M1695 1416 c-41 -19 -72 -54 -90 -105 -20 -59 -19 -93 6 -125 39 -50
108 -26 148 51 20 39 11 39 -12 -1 -29 -51 -50 -64 -72 -46 -39 33 6 209 58
230 12 5 15 9 7 9 -8 0 -28 -6 -45 -13z"/>
<path d="M1780 1392 c20 -27 21 -34 11 -64 -7 -18 -15 -61 -17 -96 -4 -51 -2
-63 11 -68 23 -9 61 11 76 38 11 21 11 22 -5 9 -9 -8 -19 -11 -22 -8 -4 3 3
49 15 102 26 118 26 123 1 100 -18 -16 -23 -17 -48 -4 -15 7 -31 15 -36 17 -5
3 2 -9 14 -26z"/>
<path d="M596 1369 c-14 -11 -33 -33 -41 -49 -14 -28 -52 -156 -61 -208 -22
-123 -77 -378 -85 -393 -15 -28 -46 -23 -66 11 -16 28 -19 29 -30 13 -18 -24
-17 -28 12 -41 65 -30 115 -1 154 88 11 25 43 160 71 300 29 140 56 263 62
273 20 37 59 1 83 -78 6 -19 8 -18 31 10 13 17 24 33 24 37 0 10 -95 58 -113
58 -8 0 -26 -9 -41 -21z"/>
<path d="M909 1373 c-13 -16 -12 -17 4 -4 9 7 17 15 17 17 0 8 -8 3 -21 -13z"/>
<path d="M665 1073 c-29 -4 -30 -6 -31 -56 -1 -29 -4 -80 -9 -114 -8 -64 1
-93 30 -93 18 0 73 47 87 74 8 15 4 13 -16 -8 -45 -47 -54 -23 -32 87 10 50
21 98 23 105 3 6 -1 11 -8 10 -8 0 -27 -3 -44 -5z"/>
<path d="M839 1073 c-14 -3 -34 -53 -30 -75 0 -4 -6 -42 -15 -84 -14 -68 -14
-78 -1 -91 20 -21 52 -9 79 30 16 22 17 28 5 18 -10 -8 -20 -11 -24 -8 -5 6
16 130 33 195 6 23 -5 26 -47 15z"/>
<path d="M982 1063 c-12 -10 -24 -30 -27 -44 -6 -23 2 -36 44 -83 28 -31 51
-63 51 -70 0 -69 -67 -57 -108 19 -10 19 -11 18 -17 -7 -9 -36 -2 -45 47 -58
75 -21 128 8 128 69 0 30 -8 45 -45 81 -45 44 -56 75 -33 98 20 20 -16 15 -40
-5z"/>
<path d="M1073 1057 c12 -13 27 -32 34 -43 11 -17 12 -16 12 13 1 33 -20 53
-53 53 -12 0 -10 -5 7 -23z"/>
<path d="M1202 1073 c-27 -4 -32 -8 -26 -21 9 -23 8 -43 -12 -134 -15 -71 -16
-81 -2 -95 21 -21 52 -9 80 30 16 22 17 28 5 18 -10 -8 -20 -11 -24 -8 -5 6 9
86 34 195 3 15 1 21 -8 20 -8 0 -29 -3 -47 -5z"/>
<path d="M1587 1073 c-4 -3 -7 -62 -7 -130 l0 -123 35 0 35 0 0 83 c0 91 15
127 54 127 39 0 46 -18 46 -117 l0 -93 35 0 35 0 -3 111 c-2 103 -4 112 -26
130 -28 23 -88 25 -119 3 -20 -14 -22 -14 -22 0 0 16 -49 23 -63 9z"/>
<path d="M760 930 c-6 -11 -8 -20 -6 -20 3 0 10 9 16 20 6 11 8 20 6 20 -3 0
-10 -9 -16 -20z"/>
</g>
</svg>
