<svg width="94" height="56" viewBox="0 0 94 56" fill="none" xmlns="http://www.w3.org/2000/svg">
<path d="M26.1567 3.61244C25.0849 6.73246 30.7972 12.6099 25.2511 17.482C19.7049 22.3541 0.601562 24.713 0.601562 25.7398C0.601562 26.4112 17.6097 29.1794 21.5697 36.4857C25.5297 43.7921 21.141 54.6673 22.1913 54.6673C22.8665 54.6673 29.0771 46.6357 40.6945 43.925C52.3119 41.2143 71.7368 52.8398 73.5051 52.4449C74.3947 52.2474 71.2438 41.7061 76.0344 34.8521C80.825 27.9981 93.4016 25.0505 93.4016 22.8065C93.4016 19.6254 77.7866 21.1298 70.6329 16.1895C63.4792 11.2491 71.1688 0.689887 68.1251 1.36487C64.8564 2.08295 59.2567 5.92463 49.6005 7.61928C39.9443 9.31393 26.4407 2.77589 26.1567 3.61244Z" fill="#FE6914" stroke="#282218" stroke-linecap="round" stroke-linejoin="round"/>
</svg>
