<svg width="326" height="96" viewBox="0 0 326 96" fill="none" xmlns="http://www.w3.org/2000/svg">
<path d="M1.51105 56.4288C-1.62637 49.3941 13.4546 42.5784 17.4607 40.433C35.9072 30.5555 51.1768 21.6658 71.2468 15.1795C86.5679 10.2283 101.543 8.94605 117.22 7.59892C126.737 6.78213 136.983 0.55624 146.587 0.902923C157.624 1.30113 167.9 9.1552 178.836 10.2636C205.152 12.9284 229.018 21.6881 255.397 22.8519C276.175 23.7689 319.4 12.1242 324.656 36.6354C326.277 44.1917 317.811 50.2157 310.698 52.6233C305.029 54.5406 290.513 56.0166 286.803 61.6639C284.898 64.5609 285.234 73.5801 283.143 77.7417C278.28 87.4168 248.755 86.8757 238.84 87.6595C179.645 92.3342 158.46 83.8426 82.3848 94.6602C70.2849 96.381 28.8519 91.9875 20.9269 83.3637C18.4921 80.7126 14.4157 77.6845 13.4466 74.2547C12.8732 72.2257 15.3039 68.9723 13.9447 67.0615C10.5595 62.3059 4.30292 62.6933 1.51105 56.4288Z" fill="#76A025" stroke="#282218" stroke-miterlimit="10" stroke-linecap="round" stroke-linejoin="round"/>
</svg>
