<svg width="321" height="124" viewBox="0 0 321 124" fill="none" xmlns="http://www.w3.org/2000/svg">
<path d="M248.741 86.6497C247.899 86.4596 260.816 104.298 261.7 106.454C261.931 107.019 262.727 107.719 262.32 108.177C262.153 108.365 261.812 108.258 261.561 108.224C256.22 107.512 242.783 105.522 237.381 105.195C221.474 104.233 207.904 101.613 192.123 99.5056C190.291 99.261 179.562 98.0392 178.151 99.6258C178.118 99.6629 178.931 100.994 179.006 101.081C181.524 103.997 186.38 112.915 186.625 116.704C186.641 116.954 186.841 117.268 186.674 117.455C186.541 117.605 182.934 116.837 182.685 116.79C177.973 115.935 175.244 114.433 170.432 113.946C152.061 112.086 134.134 104.065 115.945 100.757C113.513 100.316 93.6489 113.994 91.2657 116.14C88.6085 118.532 85.7977 120.631 83.0618 122.943C82.9187 123.065 82.5844 123.412 82.5717 123.226C82.3645 120.022 80.7195 95.309 77.4364 94.8697C60.7655 92.6441 39.4756 98.0949 23.4838 101.774C18.9843 102.809 14.2036 103.459 9.68878 104.65C9.46792 104.709 2.84007 104.82 2.64641 104.49C2.2708 103.854 10.3433 97.6394 10.7066 96.7885C14.2508 88.4911 16.6008 79.0367 18.9126 70.3635C19.414 68.486 22.8596 62.5153 21.6057 60.8874C19.8254 58.5792 0.61871 50.7963 0.542738 49.6308C0.51802 49.237 12.037 45.5765 12.9756 45.3299C23.0418 42.6719 32.2023 35.5618 41.8348 31.6972C44.0447 30.8107 51.1355 28.3821 52.145 26.0196C53.0181 23.9775 39.0354 6.81285 39.1877 6.45641C39.3137 6.16432 42.4831 6.94628 42.7808 6.98571C49.605 7.89735 56.2931 9.02352 63.0896 10.493C79.0933 13.9516 84.2305 16.6103 100.075 21.3634C108.031 23.749 114.719 26.6324 119.923 25.8951C127.124 24.8743 153.42 1.50196 156.839 1.2875C156.966 1.28015 165.546 19.8104 178.514 19.8122C191.482 19.8139 197.54 9.10975 201.521 8.85931C203.239 8.75232 212.817 21.7985 215.424 23.2917C222.906 24.7818 244.834 10.422 248.712 11.4365C249.079 11.5321 249.111 12.6664 249.063 12.9241C248.699 14.8881 244.188 30.6662 244.912 31.2963C245.348 31.6758 249.533 31.4067 250.261 31.4634C262.583 32.4243 282.045 31.5458 294.192 33.7533C295.21 33.9388 280.267 44.6441 280.268 51.0969C280.269 59.1006 295.18 64.292 298.11 65.4172C307.785 69.1358 319.913 74.8056 319.952 75.3883C319.97 75.683 293.626 82.2711 284.543 83.1572C275.663 84.0245 255.659 88.2093 248.741 86.6497Z" fill="#F7BE00" stroke="#282218" stroke-miterlimit="10" stroke-linecap="round" stroke-linejoin="round"/>
</svg>
