<svg width="80" height="80" viewBox="0 0 80 80" fill="none" xmlns="http://www.w3.org/2000/svg">
<path d="M26.7992 4.55419C37.9288 12.604 49.8334 19.4939 61.1931 27.2655C64.2487 29.3563 75.0485 33.5922 76.2421 37.3228C76.9972 39.6802 69.9513 43.6493 68.6137 45.1724C61.5209 53.2476 53.331 61.6626 44.814 68.5066C43.8213 69.3041 37.0089 77.2895 36.1609 76.8524C35.8876 76.7112 34.0175 56.031 33.4628 55.7446C30.2625 54.097 9.89738 59.1211 8.0931 57.2723C7.58481 56.7521 6.83904 42.7929 6.15457 40.6532C5.73309 39.3348 2.53089 29.9547 3.84862 29.2224C8.68067 26.5383 23.0304 33.3786 29.0838 30.4428C29.9023 30.0457 29.8508 29.1439 29.6173 28.4126C28.4925 24.8997 25.0686 3.30286 26.7992 4.55419Z" fill="#FE4538" stroke="#282218" stroke-miterlimit="10" stroke-linecap="round" stroke-linejoin="round"/>
</svg>
