<svg width="68" height="68" viewBox="0 0 68 68" fill="none" xmlns="http://www.w3.org/2000/svg">
<path d="M26.9247 20.6889C28.579 18.2234 23.2494 5.36257 24.6938 3.21028C25.052 2.67818 26.0495 3.30571 26.4296 3.45611C30.5592 5.09703 34.67 9.15577 38.5751 11.5798C44.4687 15.2382 56.0607 19.4121 59.8927 25.12C60.9642 26.7163 53.6773 43.8837 52.9515 46.0443C51.0694 51.6517 49.2114 57.3005 47.0025 62.7844C46.7194 63.4866 47.2688 65 46.5074 65C45.628 65 40.0237 48.3118 37.8315 47.7672C33.9755 46.8098 21.5773 57.1574 19.2409 56.3836C18.4576 56.1243 10.8365 34.3432 10.3174 31.7667C10.1274 30.8228 7.49439 25.4613 8.08657 24.8731C9.1571 23.81 24.5424 24.2394 26.9247 20.6889Z" fill="#FE4538" stroke="#282218" stroke-miterlimit="10" stroke-linecap="round" stroke-linejoin="round"/>
</svg>
