<svg width="56" height="48" viewBox="0 0 56 48" fill="none" xmlns="http://www.w3.org/2000/svg">
<path d="M28.5717 5.65414C22.1713 2.12078 18.0028 -0.988597 13.874 2.27338C8.58345 6.45433 14.2664 12.8666 9.82441 20.0564C5.89427 26.4185 -1.25054 35.4671 2.50438 40.5889C6.35507 45.8255 11.2905 43.2202 16.7483 41.314C18.0601 40.8546 21.0398 39.1478 25.5566 43.0571C30.0734 46.9665 35.3177 48.4536 39.8715 45.8921C45.8309 42.5446 44.6923 33.7882 44.9075 29.5455C45.1226 25.3027 46.1286 24.0022 52.0023 17.7972C58.3566 11.0958 53.1049 2.47112 39.8821 6.35048C36.289 7.4023 31.9442 7.52501 28.5717 5.65414Z" fill="#F7BE00" stroke="#282218" stroke-linecap="round" stroke-linejoin="round"/>
</svg>
