<svg viewBox="0 0 60 60" fill="none" xmlns="http://www.w3.org/2000/svg">
<path d="M16.9719 7.13605C16.3021 10.0611 19.8723 15.5711 16.4059 20.1388C12.9396 24.7064 1 26.9178 1 27.8805C1 28.5099 11.6301 31.1051 14.1051 37.9548C16.5801 44.8045 13.8372 55 14.4936 55C14.9156 55 18.7972 47.4703 26.0581 44.929C33.319 42.3877 45.4595 53.2867 46.5647 52.9165C47.1207 52.7313 45.1514 42.8489 48.1455 36.4233C51.1396 29.9976 59 27.2342 59 25.1305C59 22.1482 49.2407 23.5586 44.7696 18.927C40.2985 14.2954 45.1045 4.39616 43.2022 5.02896C41.1593 5.70215 37.6594 9.30373 31.6243 10.8925C25.5892 12.4812 17.1494 6.35178 16.9719 7.13605Z" fill="#FE6914" stroke="#282218" stroke-linecap="round" stroke-linejoin="round"/>
</svg>
