<svg viewBox="0 0 59 53" fill="none" xmlns="http://www.w3.org/2000/svg">
<path d="M20.7573 20.3667C20.7573 20.3667 16.9596 -0.0597048 35.1723 1.0431C49.9348 1.93845 54.026 12.1394 44.7823 18.3249C40.4567 21.2184 39.8211 22.4195 39.8211 23.0364C39.8211 23.3367 44.0309 22.8344 49.1214 24.2948C54.5082 25.8344 58.4513 32.0417 57.9584 39.7177C57.4655 47.3937 49.7786 53.1069 40.4998 44.8195C36.7614 41.4811 33.6559 37.1436 33.0014 37.8042C32.4843 38.3283 32.2419 42.1444 29.5916 46.916C21.4683 61.5554 4.71007 40.8587 2.00052 31.5204C-0.709028 22.182 2.32642 17.5415 8.19532 16.7526C14.0642 15.9637 20.7573 20.3667 20.7573 20.3667Z" fill="#D5F166" stroke="#282218" stroke-linecap="round" stroke-linejoin="round"/>
</svg>
