<svg viewBox="0 0 60 60" fill="none" xmlns="http://www.w3.org/2000/svg">
<path d="M31.2892 2.93576C28.5557 1.36552 20.7538 1.25185 18.9781 6.74982C16.9353 13.0519 26.2813 18.7477 22.6568 22.6291C19.0323 26.5105 5.10196 15.0515 2.33925 28.1397C-0.00403643 39.2346 10.329 46.4396 16.8309 41.2974C22.0225 37.1907 25.4091 34.2902 29.0983 36.7087C32.3284 38.8262 32.0947 45.1577 32.2533 49.8411C32.5537 58.6817 42.5863 61.3528 51.5964 52.7417C65.3515 39.5924 43.5211 36.9003 43.9864 30.9371C44.4329 25.2034 54.7201 31.3581 57.6747 21.844C58.4969 19.196 57.923 14.1317 54.0586 12.0205C47.5107 8.44216 41.689 18.9876 37.1819 18.4425C32.6747 17.8973 34.7843 12.3194 34.8261 9.77876C34.8928 6.62774 34.2314 4.62809 31.2892 2.93576Z" fill="#76A025" stroke="#282218" stroke-linecap="round" stroke-linejoin="round"/>
</svg>
