<svg width="60" height="60" viewBox="0 0 60 60" fill="none" xmlns="http://www.w3.org/2000/svg">
<path d="M21.7573 24.3667C21.7573 24.3667 17.9596 3.9403 36.1723 5.0431C50.9348 5.93845 55.026 16.1394 45.7823 22.3249C41.4567 25.2184 40.8211 26.4195 40.8211 27.0364C40.8211 27.3367 45.0309 26.8344 50.1214 28.2948C55.5082 29.8344 59.4513 36.0417 58.9584 43.7177C58.4655 51.3937 50.7786 57.1069 41.4998 48.8195C37.7614 45.4811 34.6559 41.1436 34.0014 41.8042C33.4843 42.3283 33.2419 46.1444 30.5916 50.916C22.4683 65.5554 5.71007 44.8587 3.00052 35.5204C0.290972 26.182 3.32642 21.5415 9.19532 20.7526C15.0642 19.9637 21.7573 24.3667 21.7573 24.3667Z" fill="#D5F166" stroke="#282218" stroke-linecap="round" stroke-linejoin="round"/>
</svg>
