<svg width="60" height="60" viewBox="0 0 60 60" fill="none" xmlns="http://www.w3.org/2000/svg">
<path d="M30.5717 11.6541C24.1713 8.12078 20.0028 5.0114 15.874 8.27338C10.5835 12.4543 16.2664 18.8666 11.8244 26.0564C7.89427 32.4185 0.749457 41.4671 4.50438 46.5889C8.35507 51.8255 13.2905 49.2202 18.7483 47.314C20.0601 46.8546 23.0398 45.1478 27.5566 49.0571C32.0734 52.9665 37.3177 54.4536 41.8715 51.8921C47.8309 48.5446 46.6923 39.7882 46.9075 35.5455C47.1226 31.3027 48.1286 30.0022 54.0023 23.7972C60.3566 17.0958 55.1049 8.47112 41.8821 12.3505C38.289 13.4023 33.9442 13.525 30.5717 11.6541Z" fill="#F7BE00" stroke="#282218" stroke-linecap="round" stroke-linejoin="round"/>
</svg>
