<svg width="60" height="60" viewBox="0 0 60 60" fill="none" xmlns="http://www.w3.org/2000/svg">
<path d="M25.0502 13.2267C22.7732 9.46274 20.1384 5.92983 17.0397 5.13326C9.02322 2.39693 1.07948 12.9075 3.41409 21.1012C4.82395 26.054 8.87162 27.6198 13.9047 28.3829C14.9355 28.5562 19.1166 29.4987 19.1166 29.4987C19.1166 29.4987 17.3672 29.5991 13.1861 30.5507C2.99871 32.8614 4.14176 40.9305 6.90388 44.1989C10.7696 48.7594 15.2691 47.4095 17.7219 44.8982C20.1748 42.3868 20.7812 41.7088 20.863 41.7483C20.863 41.7483 20.7781 43.305 22.2577 47.3456C25.1169 55.1563 31.8691 56.7069 37.6146 55.7462C50.6763 52.7727 50.8643 43.9131 46.3376 37.5496C42.7508 32.5056 41.1832 30.6601 41.4531 29.8484C41.635 29.3011 42.0928 29.067 45.2915 29.1491C55.9974 29.4318 61.9188 24.2024 55.0636 14.1023C48.2083 4.00224 39.0578 13.4487 38.9942 13.403C38.2574 12.6612 39.164 7.13382 35.5044 5.00253C29.489 1.41794 24.7803 8.21923 25.0502 13.2267Z" fill="#64CDF5" stroke="#282218" stroke-linecap="round" stroke-linejoin="round"/>
</svg>
