<svg width="576" height="332" viewBox="0 0 576 332" fill="none" xmlns="http://www.w3.org/2000/svg">
<path d="M200.802 303.651L200.919 303.165L200.802 303.651ZM575.521 326.388L570.804 329.717L570.28 323.967L575.521 326.388ZM87.7143 0.594011C87.9385 0.43283 88.251 0.483934 88.4121 0.708156C88.5733 0.932377 88.5222 1.24481 88.298 1.40599L87.7143 0.594011ZM1.02148 142.311C1.02148 180.183 24.0377 213.919 60.5836 241.448C97.1244 268.973 147.126 290.239 200.919 303.165L200.686 304.137C146.801 291.189 96.662 269.877 59.9819 242.247C23.3068 214.62 0.0214844 180.623 0.0214844 142.311H1.02148ZM200.919 303.165C362.303 341.944 540.703 328.908 570.994 326.298L571.08 327.295C540.771 329.906 362.235 342.957 200.686 304.137L200.919 303.165ZM88.298 1.40599C38.7393 37.0311 1.02148 85.3821 1.02148 142.311H0.0214844C0.0214844 84.9135 38.0421 36.3008 87.7143 0.594011L88.298 1.40599Z" fill="#282218"/>
</svg>
