<svg width="323" height="114" viewBox="0 0 323 114" fill="none" xmlns="http://www.w3.org/2000/svg">
<path d="M113.165 8.06923C117.667 6.97879 123.041 6.63348 126.969 7.80938C138.828 11.3578 151.04 18.5674 163.469 12.8068C173.433 8.18844 182.676 -0.00722671 194.332 1.1021C200.03 1.64444 201.143 9.1077 207.122 10.4023C215.702 12.2594 225.309 5.26991 235.108 7.8316C244.661 10.329 247.707 19.6791 257.142 21.391C264.84 22.7867 272.67 20.3475 280.382 21.0186C294.756 22.2683 326.413 32.2311 321.484 49.51C317.399 63.826 297.733 53.8752 289.064 66.7647C285.908 71.4554 288.082 78.3951 282.422 82.1C277.53 85.3013 270.363 83.4783 265.789 87.2087C262.001 90.2974 259.337 96.0128 253.793 95.7396C244.212 95.2654 234.07 91.5163 224.303 93.0647C208.875 95.5119 196.379 106.131 180.791 108.403C171.345 109.78 164.972 104.672 156.21 103.082C144.897 101.029 137.784 115.14 126.6 112.72C115.945 110.413 107.845 99.1445 97.9868 97.0107C90.8361 95.4623 83.4527 99.6682 76.3876 99.5932C72.4024 99.5503 70.4297 97.0134 66.814 96.2312C64.0627 95.6351 58.248 97.947 55.2562 98.2444C43.4734 99.4177 20.0178 96.3772 18.2726 87.9011C17.2587 82.9706 21.561 81.1035 20.9575 76.6284C19.5511 66.1994 3.57352 63.8193 1.27858 52.6925C-1.10202 41.1518 12.4029 42.7846 17.8929 38.3068C23.5005 33.734 27.9062 26.6094 34.6734 23.4725C41.4674 20.3248 46.5905 20.9677 53.2503 17.0913C69.6881 7.52286 78.2785 18.5674 91.7042 14.1262C95.8453 12.7561 99.6233 10.6823 104.088 9.87198C105.543 9.60798 111.883 8.37958 113.165 8.06923Z" fill="#FF81BE" stroke="#282218" stroke-miterlimit="10" stroke-linecap="round" stroke-linejoin="round"/>
</svg>
