<svg width="329" height="123" viewBox="0 0 329 123" fill="none" xmlns="http://www.w3.org/2000/svg">
<path d="M0.641255 95.8159C4.24123 102.043 81.3894 94.3778 88.8257 94.2339C125.809 93.5187 109.548 115.564 115.368 122.434C125.736 122.826 156.379 95.9978 176.619 95.4256C181.086 95.3939 195.114 98.4481 199.15 100.034C209.181 103.973 210.775 99.8251 227.883 111.437C229.944 113.181 237.203 116.09 239.45 117.293C242.751 119.061 249.56 119.972 249.467 119.535C247.761 111.548 233.969 102.302 233.747 94.4006C233.724 93.6108 236.216 94.4359 240.797 95.8218C246.383 95.7809 249.891 90.3916 261.344 91.1387C279.123 92.2985 289.469 97.6055 305.314 98.9447C310.332 99.3693 323.206 103.932 327.843 101.887C328.086 101.779 321.794 96.2396 321.441 95.97C318.003 93.3504 314.947 89.9638 311.831 86.8691C302.044 77.1501 285.329 69.2136 276.292 58.6912C267.036 47.9137 303.161 36.3298 308.675 23.4832C308.911 22.9308 301 24.2601 292.82 24.0055C286.447 23.9253 265.307 20.207 258.921 20.4382C236.65 21.2442 231.732 22.8705 209.503 25.4388C203.794 26.0978 193.172 29.1905 188.12 26.2851C181.239 22.3292 181.919 3.00193 173.887 0.668024C172.196 0.175919 172.844 6.70262 165.621 10.6447C145.554 19.8386 117.536 25.7691 106.459 29.3871C86.4991 35.9078 71.7586 33.1214 59.4205 36.1327C47.0823 39.1441 47.0299 39.942 36.2965 44.2666C25.5632 48.5912 85.673 53.5447 67.6016 70.5214C48.3679 84.8146 -1.02619 92.9305 0.641255 95.8159Z" fill="#FE6914" stroke="#282218" stroke-miterlimit="10" stroke-linecap="round" stroke-linejoin="round"/>
</svg>
