<svg width="324" height="114" viewBox="0 0 324 114" fill="none" xmlns="http://www.w3.org/2000/svg">
<path d="M184.358 16.2062C194.997 4.28254 217.11 -5.93974 228.15 7.04837C232.345 11.9844 230.441 16.1263 231.297 21.6924C231.333 21.9282 231.728 21.5008 231.918 21.3629C233.963 19.8628 236.474 19.4505 238.881 18.6274C243.892 16.9149 249.678 15.7774 254.969 15.5637C269.602 14.9708 285.997 17.7036 298.08 26.7208C304.615 31.5989 309.094 38.5218 302.72 45.2558C302.239 45.7645 297.465 48.9123 297.527 49.3107C297.666 50.2194 299.321 49.3949 300.216 49.3342C303.76 49.0943 307.685 49.4348 311.108 50.3255C323.921 53.6608 325.019 63.1695 320.768 72.1864C317.18 79.7956 308.487 88.4011 294.317 90.6949C277.981 93.3394 270.867 92.5769 254.594 90.2426C248.035 89.3009 231.105 83.7141 225.316 84.6517C224.179 84.835 227.35 85.7726 228.28 86.4675C230.006 87.7553 232.138 89.7283 232.486 91.9854C233.229 96.8166 227.939 102.107 223.959 103.468C216.78 105.923 208.342 104.528 201.368 102.075C198.976 101.233 196.66 100.33 194.267 99.5508C193.011 99.1426 189.432 97.5295 190.498 98.325C197.211 103.336 194.477 112.528 185.143 112.968C176.405 113.379 170.683 108.574 165.609 102.355C165.333 102.017 165.206 101.271 164.782 101.34C163.053 101.62 160.907 104.674 157.542 106.646C139.704 117.101 115.103 112.455 95.3547 108.221C90.1544 107.105 84.2795 107.932 80.3718 101.003C79.0536 98.667 78.7956 95.0587 78.3495 95.1318C61.2005 97.9087 42.9267 101.602 32.4266 98.4091C30.3116 97.7652 26.881 95.664 26.6646 92.2501C26.5786 90.8796 27.3177 88.242 27.1014 87.8173C26.9132 87.4437 21.8473 86.6812 15.6579 83.2411C6.73944 78.2844 3.01184 72.4026 1.45711 65.1061C-1.1444 52.9011 7.41936 46.2223 25.5883 47.4232C26.6512 47.4935 35.2741 47.9609 35.5858 46.953C35.7901 46.2926 31.4148 39.56 31.1514 38.4873C29.1466 30.3374 31.146 22.1364 35.8868 15.4493C41.114 8.07557 48.6068 4.28254 57.9728 7.74052C62.6894 9.4833 64.2239 13.0061 66.7744 11.1365C75.4335 4.7913 88.429 2.16472 99.5687 4.67962C105.969 6.1232 110.402 7.65503 116.805 11.9899C120.32 14.3711 122.984 17.5891 123.446 17.3437C125.152 16.4365 127.203 12.8117 128.548 11.2371C134.489 4.28253 140.34 6.68713 147.968 5.11119C160.622 2.4984 164.363 0.180662 173.753 6.90222C180.186 11.5073 183.199 17.505 184.358 16.2062Z" fill="#64CDF5" stroke="#282218" stroke-miterlimit="10" stroke-linecap="round" stroke-linejoin="round"/>
</svg>
